<svg width="24" height="24" viewBox="0 0 24 24" fill="none" xmlns="http://www.w3.org/2000/svg">
<path d="M10.4664 2.40946C11.6544 2.50925 12.5822 4.04738 12.5325 5.86274C12.4852 7.66836 11.4964 9.06165 10.3061 8.97159C9.12564 8.88378 8.18812 7.34341 8.22802 5.5258C8.26567 3.71793 9.27392 2.32914 10.4664 2.40946ZM17.4332 4.01786C18.5499 4.47068 18.8376 6.15865 18.0984 7.80455C17.3277 9.45345 15.8196 10.4292 14.7103 9.98837C13.5913 9.54529 13.3134 7.85957 14.0721 6.21816C14.8232 4.56477 16.3314 3.58902 17.4332 4.01786ZM4.21876 5.68807C5.43977 5.46707 6.74984 6.68294 7.1904 8.37542C7.5755 10.0859 6.94874 11.6449 5.73748 11.8681C4.52622 12.0913 3.22364 10.8875 2.80706 9.18001C2.39048 7.47253 3.03898 5.90832 4.21876 5.68807ZM21.7574 9.73719C22.7213 10.4523 22.6184 12.1425 21.4955 13.4946C20.3726 14.8466 18.6741 15.3576 17.6833 14.626C16.6924 13.8944 16.8125 12.2184 17.9085 10.8499C19.0464 9.52182 20.7569 9.0033 21.7574 9.73719ZM17.7053 19.8652C17.5328 20.7901 16.5973 21.6415 15.6716 21.8281C13.743 22.2244 12.0598 20.0911 10.1208 19.6434C8.18176 19.1958 5.69845 20.439 4.18376 19.1759C3.31962 18.4735 2.93974 17.0516 3.30936 16.0285C3.81992 14.6172 5.744 14.2404 7.02203 13.4168C8.71307 12.3601 10.2836 10.0029 12.242 10.4551C14.1908 10.905 14.6365 13.6866 15.6257 15.4031C16.4328 16.8415 18.0037 18.2613 17.7053 19.8652Z" fill="#FFCA63"/>
</svg>
